{"title":"Formosa.Betrayed.2009.DVDRiP.XViD.OPTIONAL.NORDIC-Zen_Bud","uid":5855640,"size":754581928,"categoryP":"video","categoryS":"movies","magnet":"?xt=urn:btih:d00e6b3ae0d03f0e47a59cc7cacfb385b8c648c3&amp;dn=Formosa.Betrayed.2009.DVDRiP.XViD.OPTIONAL.NORDIC-Zen_Bud&amp;tr=udp%3A%2F%2Ftracker.openbittorrent.com%3A80&amp;tr=udp%3A%2F%2Fopen.demonii.com%3A1337&amp;tr=udp%3A%2F%2Ftracker.coppersurfer.tk%3A6969&amp;tr=udp%3A%2F%2Fexodus.desync.com%3A6969","seeders":0,"leechers":0,"uploader":"Zen_Bud","files":-1,"time":1285604028,"description":"\nComplete name                    : Formosa.Betrayed.2009.avi\n\nFormat                           : AVI\nFile size                        : 706 MiB\nDuration                         : 1h 38mn\nOverall bit rate                 : 999 Kbps\n\nVideo\n\nFormat                           : MPEG-4 Visual\nCodec ID/Hint                    : XviD\nDuration                         : 1h 38mn\nBit rate                         : 858 Kbps\nWidth                            : 720 pixels\nHeight                           : 552 pixels\nDisplay aspect ratio             : 1.855\nStream size                      : 607 MiB (86%)\nWriting library                  : XviD 1.1.2 (UTC 2006-11-01)\n\nAudio\n\nFormat                           : MPEG Audio\nCodec ID/Hint                    : MP3\nDuration                         : 1h 38mn\nBit rate                         : 128 Kbps\nChannel(s)                       : 2 channels\nSampling rate                    : 48.0 KHz\nStream size                      : 90.5 MiB (13%)\nWriting library                  : LAME3.98\nLanguage                         : English\n\nText #1\nLanguage                         : Swedish\n\nText #2\nLanguage                         : Finnish\n\nText #3\nLanguage                         : Norwegian\n\nText #4\nLanguage                         : Danish\n","torrent":{"xt":"urn:btih:d00e6b3ae0d03f0e47a59cc7cacfb385b8c648c3","amp;dn":"Formosa.Betrayed.2009.DVDRiP.XViD.OPTIONAL.NORDIC-Zen_Bud","amp;tr":["udp%3A%2F%2Ftracker.openbittorrent.com%3A80","udp%3A%2F%2Fopen.demonii.com%3A1337","udp%3A%2F%2Ftracker.coppersurfer.tk%3A6969","udp%3A%2F%2Fexodus.desync.com%3A6969"],"infoHash":"d00e6b3ae0d03f0e47a59cc7cacfb385b8c648c3","infoHashBuffer":{"type":"Buffer","data":[208,14,107,58,224,208,63,14,71,165,156,199,202,207,179,133,184,198,72,195]},"announce":[],"urlList":[]}}